<svg xmlns="http://www.w3.org/2000/svg" width="273.543" height="39.503" viewBox="0 0 273.543 39.503"><g id="Group_14" data-name="Group 14" transform="translate(-59.8 -47.517)"><g id="Group_10" data-name="Group 10" transform="translate(177.384 51.017)"><path id="Path_1814" data-name="Path 1814" d="M273.4,79.438l-.918.917a7.38,7.38,0,0,1-10.407,0l-8.393-8.393a7.38,7.38,0,0,1,0-10.407l8.393-8.393a7.38,7.38,0,0,1,10.407,0L286.644,67.32" transform="translate(-251.541 -51.017)" fill="none" stroke="#55a333" stroke-width="7"></path><circle id="Ellipse_3" data-name="Ellipse 3" cx="5.499" cy="5.499" r="5.499" transform="translate(31.964 13.105)" fill="#55a333"></circle></g><g id="Group_11" data-name="Group 11" transform="translate(186.968 52.035)"><path id="Path_1815" data-name="Path 1815" d="M293.225,55.741l.917-.917a7.381,7.381,0,0,1,10.407,0l8.393,8.393a7.38,7.38,0,0,1,0,10.407l-8.393,8.393a7.381,7.381,0,0,1-10.407,0L279.986,67.859" transform="translate(-272.127 -52.677)" fill="none" stroke="#004899" stroke-width="7"></path><circle id="Ellipse_4" data-name="Ellipse 4" cx="5.499" cy="5.499" r="5.499" transform="translate(0 7.382)" fill="#004899"></circle></g><g id="Group_12" data-name="Group 12" transform="translate(59.8 60.337)"><path id="Path_1816" data-name="Path 1816" d="M67.053,84.742,59.8,66.946h5.757l4.686,12.762,4.686-12.762h5.633l-7.253,17.8Z" transform="translate(-59.8 -66.498)" fill="#55a333"></path><path id="Path_1817" data-name="Path 1817" d="M96.988,84.742v-17.8h5.234v17.8Z" transform="translate(-74.183 -66.498)" fill="#55a333"></path><path id="Path_1818" data-name="Path 1818" d="M122.813,72.022a2.825,2.825,0,0,0-1.3-1.508,5.164,5.164,0,0,0-2.393-.461,7,7,0,0,0-2.6.373,1.2,1.2,0,0,0-.885,1.1,1.124,1.124,0,0,0,.474,1,5.058,5.058,0,0,0,1.844.549l3.838.623a10.231,10.231,0,0,1,5,1.857,4.543,4.543,0,0,1,1.532,3.651,4.735,4.735,0,0,1-2.268,4.262q-2.268,1.446-6.7,1.445t-6.767-1.57a6.062,6.062,0,0,1-2.63-4.735h5.234a2.656,2.656,0,0,0,1.246,1.869,5.746,5.746,0,0,0,2.916.6,6.8,6.8,0,0,0,2.767-.448,1.4,1.4,0,0,0,.972-1.271,1.1,1.1,0,0,0-.536-.972,5.009,5.009,0,0,0-1.857-.548l-3.166-.473a11.233,11.233,0,0,1-5.359-1.919,4.577,4.577,0,0,1-1.695-3.763,4.493,4.493,0,0,1,2.343-4.013,12.323,12.323,0,0,1,6.48-1.445,11.2,11.2,0,0,1,5.944,1.321,5.629,5.629,0,0,1,2.58,3.987Z" transform="translate(-79.197 -66.215)" fill="#55a333"></path><path id="Path_1819" data-name="Path 1819" d="M157.347,66.946h5.234V76.991q0,4.162-2.243,6.181t-6.879,2.019q-4.636,0-6.879-2.019t-2.244-6.181V66.946h5.235V77.364a3.589,3.589,0,0,0,.935,2.742,5.434,5.434,0,0,0,5.907,0,3.589,3.589,0,0,0,.935-2.742Z" transform="translate(-92.495 -66.498)" fill="#55a333"></path><path id="Path_1820" data-name="Path 1820" d="M191.644,84.742,190.3,81.427h-8.2l-1.321,3.315h-5.309l7.751-17.8h6.131l7.751,17.8Zm-5.433-13.659-2.567,6.381h5.134Z" transform="translate(-104.536 -66.498)" fill="#55a333"></path><path id="Path_1821" data-name="Path 1821" d="M214.486,84.742v-17.8h5.234V80.455h10.194l-.548,4.287Z" transform="translate(-119.626 -66.498)" fill="#55a333"></path></g><g id="Group_13" data-name="Group 13" transform="translate(237.635 60.785)"><path id="Path_1822" data-name="Path 1822" d="M357.045,84.742l-7.253-17.8h5.758l4.685,12.762,4.686-12.762h5.632l-7.253,17.8Z" transform="translate(-349.792 -66.946)" fill="#004899"></path><path id="Path_1823" data-name="Path 1823" d="M396.572,84.742l-1.345-3.315h-8.2l-1.32,3.315H380.4l7.751-17.8h6.131l7.751,17.8Zm-5.433-13.659-2.566,6.381h5.134Z" transform="translate(-361.628 -66.946)" fill="#004899"></path><path id="Path_1824" data-name="Path 1824" d="M430.066,66.946H435.3V76.991q0,4.162-2.244,6.181t-6.878,2.019q-4.636,0-6.879-2.019t-2.243-6.181V66.946h5.234V77.364a3.591,3.591,0,0,0,.935,2.742,5.434,5.434,0,0,0,5.907,0,3.587,3.587,0,0,0,.935-2.742Z" transform="translate(-375.807 -66.946)" fill="#004899"></path><path id="Path_1825" data-name="Path 1825" d="M453.146,84.742v-17.8h5.235V80.455h10.194l-.549,4.287Z" transform="translate(-389.765 -66.946)" fill="#004899"></path><path id="Path_1826" data-name="Path 1826" d="M482.333,84.742V71.233H475.7V66.946H494.2v4.287h-6.63V84.742Z" transform="translate(-398.489 -66.946)" fill="#004899"></path></g></g></svg>